<svg width="112.119934" height="31.400024" viewBox="0 0 112.12 31.4" fill="none" xmlns="http://www.w3.org/2000/svg" xmlns:xlink="http://www.w3.org/1999/xlink">
	<desc>
			Created with Pixso.
	</desc>
	<g clip-path="url(#clip19_1)">
		<path id="矩形 1" d="M6.43732 4.91528L14.8675 0.242371C15.109 0.108521 15.4695 0.164673 15.6726 0.367798L19.2221 3.9173C19.4252 4.12042 19.3941 4.39362 19.1526 4.52753L10.7224 9.20044C10.4809 9.33429 10.1204 9.27814 9.9173 9.07501L6.3678 5.52551C6.16467 5.32239 6.1958 5.04919 6.43732 4.91528Z" fill-rule="nonzero" fill="url(#paint_linear_27_1_0)"/>
		<path id="矩形 1" d="M11.4373 9.91528L19.8675 5.24237C20.109 5.10852 20.4695 5.16467 20.6726 5.3678L24.2221 8.9173C24.4252 9.12042 24.3941 9.39362 24.1526 9.52753L15.7224 14.2004C15.4809 14.3343 15.1204 14.2781 14.9173 14.075L11.3678 10.5255C11.1647 10.3224 11.1958 10.0492 11.4373 9.91528Z" fill-rule="evenodd" fill="url(#paint_linear_27_2_0)"/>
		<path id="矩形 1" d="M0.437317 14.9153L8.86749 10.2424C9.10901 10.1085 9.46948 10.1647 9.67261 10.3678L13.2221 13.9173C13.4252 14.1204 13.3941 14.3936 13.1526 14.5275L4.72241 19.2004C4.4809 19.3343 4.12042 19.2781 3.9173 19.075L0.367798 15.5255C0.164673 15.3224 0.195801 15.0492 0.437317 14.9153Z" fill-rule="evenodd" fill="url(#paint_linear_27_3_0)"/>
		<path id="矩形 1" d="M5.43732 19.9153L13.8675 15.2424C14.109 15.1086 14.4695 15.1647 14.6726 15.3679L18.2221 18.9174C18.4252 19.1205 18.3941 19.3937 18.1526 19.5276L9.72241 24.2005C9.4809 24.3344 9.12042 24.2782 8.9173 24.0751L5.3678 20.5256C5.16467 20.3224 5.1958 20.0493 5.43732 19.9153Z" fill-rule="evenodd" fill="url(#paint_linear_27_4_0)"/>
	</g>
	<path id="simple ui" d="M35.4393 9.21973C35.4393 10.2793 34.5994 11.041 33.4178 11.041C32.2215 11.041 31.3817 10.2793 31.3817 9.21973C31.3817 8.14062 32.2215 7.37891 33.4178 7.37891C34.5994 7.37891 35.4393 8.14062 35.4393 9.21973ZM110.939 9.21973C110.939 10.2793 110.099 11.041 108.918 11.041C107.721 11.041 106.882 10.2793 106.882 9.21973C106.882 8.14062 107.721 7.37891 108.918 7.37891C110.099 7.37891 110.939 8.14062 110.939 9.21973ZM75.9204 23.9805C75.5396 24.1416 74.939 24.2783 74.1577 24.2783C71.7212 24.2783 70.9204 22.6816 70.9204 20.2988L70.9204 8.01855L74.4604 8.01855L74.4604 20.4404C74.4604 21.1777 74.8218 21.4023 75.1001 21.4023C75.2222 21.4023 75.3003 21.4023 75.5005 21.3584L75.9204 23.9805ZM29.5801 20.5576C29.5801 22.6621 27.9395 24.2783 24.8389 24.2783C23.3594 24.2783 21.6016 23.6387 20.459 22.6816L22.041 20.46C23.0811 21.2607 24.0186 21.6611 24.9219 21.6611C25.8594 21.6611 26.2598 21.3193 26.2598 20.7578C26.2598 20.0791 25.1611 19.7617 23.999 19.2979C22.6416 18.7607 21.04 17.8379 21.04 15.958C21.04 13.7998 22.7979 12.3398 25.4395 12.3398C27.2412 12.3398 28.5205 13.0576 29.5215 13.7998L27.9199 15.9189C27.1191 15.3623 26.3184 14.9619 25.5615 14.9619C24.7607 14.9619 24.3604 15.2402 24.3604 15.7822C24.3604 16.4609 25.4004 16.7197 26.582 17.1396C27.998 17.6816 29.5801 18.502 29.5801 20.5576ZM41.6005 24L38.0604 24L38.0604 12.6182L40.9608 12.6182L41.2001 14.0586L41.2782 14.0586C42.2206 13.1211 43.202 12.3398 44.7401 12.3398C46.3221 12.3398 47.2792 12.999 47.8602 14.2197C48.8417 13.2188 49.9012 12.3398 51.4198 12.3398C53.9003 12.3398 54.9794 14.1221 54.9794 16.959L54.9794 24L51.4198 24L51.4198 17.3984C51.4198 15.8408 51.0194 15.3818 50.121 15.3818C49.5985 15.3818 48.9784 15.6992 48.2997 16.4023L48.2997 24L44.7206 24L44.7206 17.3984C44.7206 15.8408 44.3202 15.3818 43.4218 15.3818C42.8993 15.3818 42.2792 15.6992 41.6005 16.4023L41.6005 24ZM61.3004 28.1406L57.7604 28.1406L57.7604 12.6182L60.6608 12.6182L60.9 13.7217L60.9781 13.7217C61.8815 12.9209 62.9996 12.3398 64.1813 12.3398C66.901 12.3398 68.6198 14.6201 68.6198 18.1211C68.6198 22.042 66.2809 24.2783 63.8395 24.2783C62.8776 24.2783 61.9596 23.8584 61.1979 23.1016L61.3004 24.8789L61.3004 28.1406ZM86.7792 22.9795C85.6024 23.8193 84.0399 24.2783 82.702 24.2783C79.4403 24.2783 76.9208 22.0811 76.9208 18.3213C76.9208 14.6201 79.5624 12.3398 82.3212 12.3398C85.6024 12.3398 87.1991 14.7178 87.1991 17.8379C87.1991 18.458 87.121 19.0977 87.038 19.3613L80.3583 19.3613C80.6805 20.9189 81.7596 21.5586 83.2001 21.5586C84.0204 21.5586 84.7821 21.3193 85.6024 20.8408L86.7792 22.9795ZM35.1805 24L31.6404 24L31.6404 12.6182L35.1805 12.6182L35.1805 24ZM101.038 22.4424C100.1 23.5605 99.0408 24.2783 97.4783 24.2783C94.9979 24.2783 93.9383 22.501 93.9383 19.6592L93.9383 12.6182L97.4979 12.6182L97.4979 19.2197C97.4979 20.8018 97.9178 21.2412 98.8211 21.2412C99.6219 21.2412 100.12 20.9189 100.721 20.0791L100.721 12.6182L104.28 12.6182L104.28 24L101.38 24L101.121 22.4424L101.038 22.4424ZM110.68 24L107.14 24L107.14 12.6182L110.68 12.6182L110.68 24ZM82.3798 15.0596C81.3983 15.0596 80.5389 15.6797 80.2997 17.042L84.1815 17.042C84.1815 15.8994 83.6786 15.0596 82.3798 15.0596ZM61.3004 20.6992C61.8619 21.2021 62.4576 21.3584 62.9996 21.3584C64.0787 21.3584 64.9576 20.46 64.9576 18.1797C64.9576 16.1777 64.3815 15.2402 63.1217 15.2402C62.4576 15.2402 61.9205 15.5381 61.3004 16.2021L61.3004 20.6992Z" fill="#FFFFFFFF"/>
	<defs>
		<clipPath id="clip19_1">
			<rect id="画板 5" width="24.500000" height="24.500000" fill="white"/>
		</clipPath>
		<linearGradient id="paint_linear_27_1_0" x1="4.995567" y1="4.724319" x2="19.585320" y2="19.502735" gradientUnits="userSpaceOnUse">
			<stop stop-color="#34C2C2"/>
			<stop offset="1.000000" stop-color="#1D9E4B" stop-opacity="0.670588"/>
			<stop offset="1.000000" stop-color="#36FFAA"/>
		</linearGradient>
		<linearGradient id="paint_linear_27_2_0" x1="5.499827" y1="5.000570" x2="19.499607" y2="19.501196" gradientUnits="userSpaceOnUse">
			<stop stop-color="#34C2C2"/>
			<stop offset="1.000000" stop-color="#36FFAA" stop-opacity="0.776471"/>
			<stop offset="1.000000" stop-color="#1D9E4B" stop-opacity="0.670588"/>
		</linearGradient>
		<linearGradient id="paint_linear_27_3_0" x1="4.999586" y1="5.000467" x2="19.462852" y2="19.463730" gradientUnits="userSpaceOnUse">
			<stop stop-color="#34C2C2"/>
			<stop offset="1.000000" stop-color="#36FFAA"/>
			<stop offset="1.000000" stop-color="#1D9E4B" stop-opacity="0.670588"/>
		</linearGradient>
		<linearGradient id="paint_linear_27_4_0" x1="5.002381" y1="4.999228" x2="20.002434" y2="19.720341" gradientUnits="userSpaceOnUse">
			<stop stop-color="#34C2C2"/>
			<stop offset="1.000000" stop-color="#36FFAA"/>
			<stop offset="1.000000" stop-color="#1D9E4B" stop-opacity="0.670588"/>
		</linearGradient>
	</defs>
</svg>
